<svg xmlns="http://www.w3.org/2000/svg" version="1.1" xmlns:xlink="http://www.w3.org/1999/xlink" xmlns:svgjs="http://svgjs.com/svgjs" width="1440" height="560" preserveAspectRatio="none" viewBox="0 0 1440 560"><g mask="url(&quot;#SvgjsMask1006&quot;)" fill="none"><rect width="1440" height="560" x="0" y="0" fill="rgba(20, 27, 35, 1)"></rect><path d="M0 368.2L10 424.25L20 483.01L30 534.8L40 531.87L50 528.18L60 537.68L70 496.99L80 553.14L90 533.56L100 514.92L110 479.47L120 451.16L130 481.38L140 478.89L150 411.09L160 467.42L170 510.85L180 474.61L190 435.75L200 403.76L210 425.14L220 381.64L230 451.29L240 408.79L250 452.67L260 416.92L270 409.16L280 455.03L290 398.25L300 434.59L310 381.47L320 352.83L330 288.2L340 325.73L350 266.61L360 312.28L370 328.2L380 391.67L390 408.78L400 419.26L410 352.82L420 315.37L430 270.61L440 242.25L450 257.05L460 212.17L470 260.6L480 263.32L490 221.43L500 285.63L510 354.19L520 355.8L530 346.99L540 395.16L550 464.92L560 529.89L570 461.43L580 473.95L590 470.37L600 517.81L610 454.2L620 475.14L630 472.29L640 414.36L650 398.55L660 387.67L670 451.18L680 500.05L690 464.3L700 394.54L710 430.52L720 480.95L730 546.45L740 528.93L750 460.7L760 515.26L770 503.57L780 467.53L790 424.51L800 408L810 392.59L820 447.22L830 385.95L840 385.3L850 369.25L860 388.11L870 443.95L880 481.85L890 518.03L900 549.1L910 510.3L920 537.35L930 516.21L940 556.94L950 533.16L960 487.66L970 519.92L980 551.47L990 538.03L1000 540.67L1010 528.54L1020 545.69L1030 526.63L1040 498.47L1050 432.94L1060 444.78L1070 430.81L1080 380.93L1090 316.82L1100 299.42L1110 325.81L1120 293.54L1130 343.4L1140 392.79L1150 346.48L1160 308.15L1170 343.57L1180 321.51L1190 276L1200 235L1210 254.21L1220 286.23L1230 238.65L1240 175.38L1250 214.75L1260 253.11L1270 312.16L1280 292.51L1290 309.29L1300 346.25L1310 416.05L1320 393.24L1330 448.69L1340 483.53L1350 431.17L1360 375.49L1370 385.27L1380 442.09L1390 466L1400 463.94L1410 511.53L1420 485.63L1430 451.63L1440 408.27" stroke="rgba(0, 253, 255, 0.22)" stroke-width="2"></path><path d="M0 368.2L10 424.25L20 483.01L30 534.8L40 531.87L50 528.18L60 537.68L70 496.99L80 553.14L90 533.56L100 514.92L110 479.47L120 451.16L130 481.38L140 478.89L150 411.09L160 467.42L170 510.85L180 474.61L190 435.75L200 403.76L210 425.14L220 381.64L230 451.29L240 408.79L250 452.67L260 416.92L270 409.16L280 455.03L290 398.25L300 434.59L310 381.47L320 352.83L330 288.2L340 325.73L350 266.61L360 312.28L370 328.2L380 391.67L390 408.78L400 419.26L410 352.82L420 315.37L430 270.61L440 242.25L450 257.05L460 212.17L470 260.6L480 263.32L490 221.43L500 285.63L510 354.19L520 355.8L530 346.99L540 395.16L550 464.92L560 529.89L570 461.43L580 473.95L590 470.37L600 517.81L610 454.2L620 475.14L630 472.29L640 414.36L650 398.55L660 387.67L670 451.18L680 500.05L690 464.3L700 394.54L710 430.52L720 480.95L730 546.45L740 528.93L750 460.7L760 515.26L770 503.57L780 467.53L790 424.51L800 408L810 392.59L820 447.22L830 385.95L840 385.3L850 369.25L860 388.11L870 443.95L880 481.85L890 518.03L900 549.1L910 510.3L920 537.35L930 516.21L940 556.94L950 533.16L960 487.66L970 519.92L980 551.47L990 538.03L1000 540.67L1010 528.54L1020 545.69L1030 526.63L1040 498.47L1050 432.94L1060 444.78L1070 430.81L1080 380.93L1090 316.82L1100 299.42L1110 325.81L1120 293.54L1130 343.4L1140 392.79L1150 346.48L1160 308.15L1170 343.57L1180 321.51L1190 276L1200 235L1210 254.21L1220 286.23L1230 238.65L1240 175.38L1250 214.75L1260 253.11L1270 312.16L1280 292.51L1290 309.29L1300 346.25L1310 416.05L1320 393.24L1330 448.69L1340 483.53L1350 431.17L1360 375.49L1370 385.27L1380 442.09L1390 466L1400 463.94L1410 511.53L1420 485.63L1430 451.63L1440 408.27L1440 560L0 560z" fill="url(#SvgjsLinearGradient1007)"></path></g><defs><mask id="SvgjsMask1006"><rect width="1440" height="560" fill="#ffffff"></rect></mask><linearGradient x1="50%" y1="0%" x2="50%" y2="100%" id="SvgjsLinearGradient1007"><stop stop-opacity="0.65" stop-color="rgba(0, 253, 255, 0.22)" offset="0"></stop><stop stop-opacity="0" stop-color="rgba(224, 255, 255, 0.22)" offset="0.8"></stop></linearGradient></defs></svg>