<svg width="28" height="28" viewBox="0 0 28 28" fill="none" xmlns="http://www.w3.org/2000/svg">
<g clip-path="url(#clip0_8_173)">
<path d="M28 14.0852C28 21.0724 22.8737 26.8649 16.1817 27.9161V18.1592H19.4355L20.055 14.1225H16.1817V11.5034C16.1817 10.3985 16.723 9.32288 18.4567 9.32288H20.2172V5.88587C20.2172 5.88587 18.6188 5.61287 17.0917 5.61287C13.902 5.61287 11.8183 7.54604 11.8183 11.0449V14.1214H8.27283V18.158H11.8183V27.9149C5.1275 26.8626 0 21.0712 0 14.0852C0 6.35371 6.2685 0.0852051 14 0.0852051C21.7315 0.0852051 28 6.35254 28 14.0852Z" fill="white"/>
</g>
<defs>
<clipPath id="clip0_8_173">
<rect width="28" height="28" fill="white"/>
</clipPath>
</defs>
</svg>
