<svg width="28" height="28" viewBox="0 0 28 28" fill="none" xmlns="http://www.w3.org/2000/svg">
<g clip-path="url(#clip0_8_169)">
<path d="M14.5589 16.6425V12.817H27.4494C27.5754 13.4832 27.6407 14.2718 27.6407 15.1258C27.6407 17.9958 26.8567 21.5448 24.3274 24.073C21.868 26.6338 18.7262 28 14.5635 28C6.84718 28 0.359344 21.7152 0.359344 14C0.359344 6.28483 6.84718 0 14.5635 0C18.8324 0 21.8727 1.67533 24.157 3.85817L21.4574 6.55666C19.8194 5.02017 17.5992 3.8255 14.5589 3.8255C8.92501 3.8255 4.51851 8.36616 4.51851 14C4.51851 19.6338 8.92501 24.1745 14.5589 24.1745C18.2129 24.1745 20.2942 22.7068 21.6277 21.3733C22.7092 20.2918 23.4209 18.7472 23.7009 16.6378L14.5589 16.6425Z" fill="white"/>
</g>
<defs>
<clipPath id="clip0_8_169">
<rect width="28" height="28" fill="white"/>
</clipPath>
</defs>
</svg>
