<svg xmlns="http://www.w3.org/2000/svg" version="1.1" xmlns:xlink="http://www.w3.org/1999/xlink" xmlns:svgjs="http://svgjs.com/svgjs" width="1440" height="560" preserveAspectRatio="none" viewBox="0 0 1440 560"><g mask="url(&quot;#SvgjsMask1312&quot;)" fill="none"><path d="M50.26 -41.05L115.21 -3.55L115.21 71.45L50.26 108.95L-14.69 71.45L-14.69 -3.55zM50.26 183.95L115.21 221.45L115.21 296.45L50.26 333.95L-14.69 296.45L-14.69 221.45zM115.21 296.45L180.17 333.95L180.17 408.95L115.21 446.45L50.26 408.95L50.26 333.95zM180.17 183.95L245.12 221.45L245.12 296.45L180.17 333.95L115.21 296.45L115.21 221.45zM245.12 296.45L310.07 333.95L310.07 408.95L245.12 446.45L180.17 408.95L180.17 333.95zM439.98 183.95L504.94 221.45L504.94 296.45L439.98 333.95L375.03 296.45L375.03 221.45zM504.94 296.45L569.89 333.95L569.89 408.95L504.94 446.45L439.98 408.95L439.98 333.95zM569.89 408.95L634.84 446.45L634.84 521.45L569.89 558.95L504.94 521.45L504.94 446.45zM764.75 296.45L829.71 333.95L829.71 408.95L764.75 446.45L699.8 408.95L699.8 333.95zM894.66 71.45L959.61 108.95L959.61 183.95L894.66 221.45L829.7 183.95L829.7 108.95zM829.7 183.95L894.66 221.45L894.66 296.45L829.7 333.95L764.75 296.45L764.75 221.45zM959.61 183.95L1024.57 221.45L1024.57 296.45L959.61 333.95L894.66 296.45L894.66 221.45zM959.61 408.95L1024.57 446.45L1024.57 521.45L959.61 558.95L894.66 521.45L894.66 446.45zM1024.57 521.45L1089.52 558.95L1089.52 633.95L1024.57 671.45L959.61 633.95L959.61 558.95zM1219.43 -41.05L1284.38 -3.55L1284.38 71.45L1219.43 108.95L1154.47 71.45L1154.47 -3.55zM1219.43 183.95L1284.38 221.45L1284.38 296.45L1219.43 333.95L1154.47 296.45L1154.47 221.45zM1479.24 183.95L1544.2 221.45L1544.2 296.45L1479.24 333.95L1414.29 296.45L1414.29 221.45zM1544.2 296.45L1609.15 333.95L1609.15 408.95L1544.2 446.45L1479.24 408.95L1479.24 333.95zM1479.24 408.95L1544.2 446.45L1544.2 521.45L1479.24 558.95L1414.29 521.45L1414.29 446.45z" stroke="#03305d" stroke-width="2"></path><path d="M42.76 -41.05 a7.5 7.5 0 1 0 15 0 a7.5 7.5 0 1 0 -15 0zM107.71 -3.55 a7.5 7.5 0 1 0 15 0 a7.5 7.5 0 1 0 -15 0zM107.71 71.45 a7.5 7.5 0 1 0 15 0 a7.5 7.5 0 1 0 -15 0zM42.76 108.95 a7.5 7.5 0 1 0 15 0 a7.5 7.5 0 1 0 -15 0zM-22.19 71.45 a7.5 7.5 0 1 0 15 0 a7.5 7.5 0 1 0 -15 0zM-22.19 -3.55 a7.5 7.5 0 1 0 15 0 a7.5 7.5 0 1 0 -15 0zM42.76 183.95 a7.5 7.5 0 1 0 15 0 a7.5 7.5 0 1 0 -15 0zM107.71 221.45 a7.5 7.5 0 1 0 15 0 a7.5 7.5 0 1 0 -15 0zM107.71 296.45 a7.5 7.5 0 1 0 15 0 a7.5 7.5 0 1 0 -15 0zM42.76 333.95 a7.5 7.5 0 1 0 15 0 a7.5 7.5 0 1 0 -15 0zM-22.19 296.45 a7.5 7.5 0 1 0 15 0 a7.5 7.5 0 1 0 -15 0zM-22.19 221.45 a7.5 7.5 0 1 0 15 0 a7.5 7.5 0 1 0 -15 0zM172.67 333.95 a7.5 7.5 0 1 0 15 0 a7.5 7.5 0 1 0 -15 0zM172.67 408.95 a7.5 7.5 0 1 0 15 0 a7.5 7.5 0 1 0 -15 0zM107.71 446.45 a7.5 7.5 0 1 0 15 0 a7.5 7.5 0 1 0 -15 0zM42.76 408.95 a7.5 7.5 0 1 0 15 0 a7.5 7.5 0 1 0 -15 0zM172.67 183.95 a7.5 7.5 0 1 0 15 0 a7.5 7.5 0 1 0 -15 0zM237.62 221.45 a7.5 7.5 0 1 0 15 0 a7.5 7.5 0 1 0 -15 0zM237.62 296.45 a7.5 7.5 0 1 0 15 0 a7.5 7.5 0 1 0 -15 0zM302.57 333.95 a7.5 7.5 0 1 0 15 0 a7.5 7.5 0 1 0 -15 0zM302.57 408.95 a7.5 7.5 0 1 0 15 0 a7.5 7.5 0 1 0 -15 0zM237.62 446.45 a7.5 7.5 0 1 0 15 0 a7.5 7.5 0 1 0 -15 0zM432.48 183.95 a7.5 7.5 0 1 0 15 0 a7.5 7.5 0 1 0 -15 0zM497.44 221.45 a7.5 7.5 0 1 0 15 0 a7.5 7.5 0 1 0 -15 0zM497.44 296.45 a7.5 7.5 0 1 0 15 0 a7.5 7.5 0 1 0 -15 0zM432.48 333.95 a7.5 7.5 0 1 0 15 0 a7.5 7.5 0 1 0 -15 0zM367.53 296.45 a7.5 7.5 0 1 0 15 0 a7.5 7.5 0 1 0 -15 0zM367.53 221.45 a7.5 7.5 0 1 0 15 0 a7.5 7.5 0 1 0 -15 0zM562.39 333.95 a7.5 7.5 0 1 0 15 0 a7.5 7.5 0 1 0 -15 0zM562.39 408.95 a7.5 7.5 0 1 0 15 0 a7.5 7.5 0 1 0 -15 0zM497.44 446.45 a7.5 7.5 0 1 0 15 0 a7.5 7.5 0 1 0 -15 0zM432.48 408.95 a7.5 7.5 0 1 0 15 0 a7.5 7.5 0 1 0 -15 0zM627.34 446.45 a7.5 7.5 0 1 0 15 0 a7.5 7.5 0 1 0 -15 0zM627.34 521.45 a7.5 7.5 0 1 0 15 0 a7.5 7.5 0 1 0 -15 0zM562.39 558.95 a7.5 7.5 0 1 0 15 0 a7.5 7.5 0 1 0 -15 0zM497.44 521.45 a7.5 7.5 0 1 0 15 0 a7.5 7.5 0 1 0 -15 0zM757.25 296.45 a7.5 7.5 0 1 0 15 0 a7.5 7.5 0 1 0 -15 0zM822.21 333.95 a7.5 7.5 0 1 0 15 0 a7.5 7.5 0 1 0 -15 0zM822.21 408.95 a7.5 7.5 0 1 0 15 0 a7.5 7.5 0 1 0 -15 0zM757.25 446.45 a7.5 7.5 0 1 0 15 0 a7.5 7.5 0 1 0 -15 0zM692.3 408.95 a7.5 7.5 0 1 0 15 0 a7.5 7.5 0 1 0 -15 0zM692.3 333.95 a7.5 7.5 0 1 0 15 0 a7.5 7.5 0 1 0 -15 0zM887.16 71.45 a7.5 7.5 0 1 0 15 0 a7.5 7.5 0 1 0 -15 0zM952.11 108.95 a7.5 7.5 0 1 0 15 0 a7.5 7.5 0 1 0 -15 0zM952.11 183.95 a7.5 7.5 0 1 0 15 0 a7.5 7.5 0 1 0 -15 0zM887.16 221.45 a7.5 7.5 0 1 0 15 0 a7.5 7.5 0 1 0 -15 0zM822.2 183.95 a7.5 7.5 0 1 0 15 0 a7.5 7.5 0 1 0 -15 0zM822.2 108.95 a7.5 7.5 0 1 0 15 0 a7.5 7.5 0 1 0 -15 0zM887.16 296.45 a7.5 7.5 0 1 0 15 0 a7.5 7.5 0 1 0 -15 0zM822.2 333.95 a7.5 7.5 0 1 0 15 0 a7.5 7.5 0 1 0 -15 0zM757.25 221.45 a7.5 7.5 0 1 0 15 0 a7.5 7.5 0 1 0 -15 0zM1017.07 221.45 a7.5 7.5 0 1 0 15 0 a7.5 7.5 0 1 0 -15 0zM1017.07 296.45 a7.5 7.5 0 1 0 15 0 a7.5 7.5 0 1 0 -15 0zM952.11 333.95 a7.5 7.5 0 1 0 15 0 a7.5 7.5 0 1 0 -15 0zM952.11 408.95 a7.5 7.5 0 1 0 15 0 a7.5 7.5 0 1 0 -15 0zM1017.07 446.45 a7.5 7.5 0 1 0 15 0 a7.5 7.5 0 1 0 -15 0zM1017.07 521.45 a7.5 7.5 0 1 0 15 0 a7.5 7.5 0 1 0 -15 0zM952.11 558.95 a7.5 7.5 0 1 0 15 0 a7.5 7.5 0 1 0 -15 0zM887.16 521.45 a7.5 7.5 0 1 0 15 0 a7.5 7.5 0 1 0 -15 0zM887.16 446.45 a7.5 7.5 0 1 0 15 0 a7.5 7.5 0 1 0 -15 0zM1082.02 558.95 a7.5 7.5 0 1 0 15 0 a7.5 7.5 0 1 0 -15 0zM1082.02 633.95 a7.5 7.5 0 1 0 15 0 a7.5 7.5 0 1 0 -15 0zM1017.07 671.45 a7.5 7.5 0 1 0 15 0 a7.5 7.5 0 1 0 -15 0zM952.11 633.95 a7.5 7.5 0 1 0 15 0 a7.5 7.5 0 1 0 -15 0zM1211.93 -41.05 a7.5 7.5 0 1 0 15 0 a7.5 7.5 0 1 0 -15 0zM1276.88 -3.55 a7.5 7.5 0 1 0 15 0 a7.5 7.5 0 1 0 -15 0zM1276.88 71.45 a7.5 7.5 0 1 0 15 0 a7.5 7.5 0 1 0 -15 0zM1211.93 108.95 a7.5 7.5 0 1 0 15 0 a7.5 7.5 0 1 0 -15 0zM1146.97 71.45 a7.5 7.5 0 1 0 15 0 a7.5 7.5 0 1 0 -15 0zM1146.97 -3.55 a7.5 7.5 0 1 0 15 0 a7.5 7.5 0 1 0 -15 0zM1211.93 183.95 a7.5 7.5 0 1 0 15 0 a7.5 7.5 0 1 0 -15 0zM1276.88 221.45 a7.5 7.5 0 1 0 15 0 a7.5 7.5 0 1 0 -15 0zM1276.88 296.45 a7.5 7.5 0 1 0 15 0 a7.5 7.5 0 1 0 -15 0zM1211.93 333.95 a7.5 7.5 0 1 0 15 0 a7.5 7.5 0 1 0 -15 0zM1146.97 296.45 a7.5 7.5 0 1 0 15 0 a7.5 7.5 0 1 0 -15 0zM1146.97 221.45 a7.5 7.5 0 1 0 15 0 a7.5 7.5 0 1 0 -15 0zM1471.74 183.95 a7.5 7.5 0 1 0 15 0 a7.5 7.5 0 1 0 -15 0zM1536.7 221.45 a7.5 7.5 0 1 0 15 0 a7.5 7.5 0 1 0 -15 0zM1536.7 296.45 a7.5 7.5 0 1 0 15 0 a7.5 7.5 0 1 0 -15 0zM1471.74 333.95 a7.5 7.5 0 1 0 15 0 a7.5 7.5 0 1 0 -15 0zM1406.79 296.45 a7.5 7.5 0 1 0 15 0 a7.5 7.5 0 1 0 -15 0zM1406.79 221.45 a7.5 7.5 0 1 0 15 0 a7.5 7.5 0 1 0 -15 0zM1601.65 333.95 a7.5 7.5 0 1 0 15 0 a7.5 7.5 0 1 0 -15 0zM1601.65 408.95 a7.5 7.5 0 1 0 15 0 a7.5 7.5 0 1 0 -15 0zM1536.7 446.45 a7.5 7.5 0 1 0 15 0 a7.5 7.5 0 1 0 -15 0zM1471.74 408.95 a7.5 7.5 0 1 0 15 0 a7.5 7.5 0 1 0 -15 0zM1536.7 521.45 a7.5 7.5 0 1 0 15 0 a7.5 7.5 0 1 0 -15 0zM1471.74 558.95 a7.5 7.5 0 1 0 15 0 a7.5 7.5 0 1 0 -15 0zM1406.79 521.45 a7.5 7.5 0 1 0 15 0 a7.5 7.5 0 1 0 -15 0zM1406.79 446.45 a7.5 7.5 0 1 0 15 0 a7.5 7.5 0 1 0 -15 0z" fill="#03305d"></path><path d="M2.37 -15.56L32.68 1.94L32.68 36.94L2.37 54.44L-27.94 36.94L-27.94 1.94zM32.68 141.94L62.99 159.44L62.99 194.44L32.68 211.94L2.37 194.44L2.37 159.44zM32.68 246.94L62.99 264.44L62.99 299.44L32.68 316.94L2.37 299.44L2.37 264.44zM2.37 404.44L32.68 421.94L32.68 456.94L2.37 474.44L-27.94 456.94L-27.94 421.94zM93.31 36.94L123.62 54.44L123.62 89.44L93.31 106.94L62.99 89.44L62.99 54.44zM123.62 194.44L153.93 211.94L153.93 246.94L123.62 264.44L93.31 246.94L93.31 211.94zM153.93 246.94L184.24 264.44L184.24 299.44L153.93 316.94L123.62 299.44L123.62 264.44zM214.55 141.94L244.86 159.44L244.86 194.44L214.55 211.94L184.24 194.44L184.24 159.44zM275.18 246.94L305.49 264.44L305.49 299.44L275.18 316.94L244.86 299.44L244.86 264.44zM244.86 509.44L275.18 526.94L275.18 561.94L244.86 579.44L214.55 561.94L214.55 526.94zM305.49 -15.56L335.8 1.94L335.8 36.94L305.49 54.44L275.18 36.94L275.18 1.94zM305.49 509.44L335.8 526.94L335.8 561.94L305.49 579.44L275.18 561.94L275.18 526.94zM457.05 351.94L487.36 369.44L487.36 404.44L457.05 421.94L426.73 404.44L426.73 369.44zM426.73 404.44L457.05 421.94L457.05 456.94L426.73 474.44L396.42 456.94L396.42 421.94zM426.73 509.44L457.05 526.94L457.05 561.94L426.73 579.44L396.42 561.94L396.42 526.94zM517.67 36.94L547.98 54.44L547.98 89.44L517.67 106.94L487.36 89.44L487.36 54.44zM487.36 89.44L517.67 106.94L517.67 141.94L487.36 159.44L457.05 141.94L457.05 106.94zM487.36 194.44L517.67 211.94L517.67 246.94L487.36 264.44L457.05 246.94L457.05 211.94zM578.29 36.94L608.6 54.44L608.6 89.44L578.29 106.94L547.98 89.44L547.98 54.44zM547.98 194.44L578.29 211.94L578.29 246.94L547.98 264.44L517.67 246.94L517.67 211.94zM578.29 351.94L608.6 369.44L608.6 404.44L578.29 421.94L547.98 404.44L547.98 369.44zM547.98 404.44L578.29 421.94L578.29 456.94L547.98 474.44L517.67 456.94L517.67 421.94zM608.61 89.44L638.92 106.94L638.92 141.94L608.61 159.44L578.29 141.94L578.29 106.94zM608.61 194.44L638.92 211.94L638.92 246.94L608.61 264.44L578.29 246.94L578.29 211.94zM608.61 299.44L638.92 316.94L638.92 351.94L608.61 369.44L578.29 351.94L578.29 316.94zM638.92 456.94L669.23 474.44L669.23 509.44L638.92 526.94L608.61 509.44L608.61 474.44zM669.23 -15.56L699.54 1.94L699.54 36.94L669.23 54.44L638.92 36.94L638.92 1.94zM669.23 89.44L699.54 106.94L699.54 141.94L669.23 159.44L638.92 141.94L638.92 106.94zM820.79 141.94L851.1 159.44L851.1 194.44L820.79 211.94L790.48 194.44L790.48 159.44zM790.48 404.44L820.79 421.94L820.79 456.94L790.48 474.44L760.16 456.94L760.16 421.94zM820.79 561.94L851.1 579.44L851.1 614.44L820.79 631.94L790.48 614.44L790.48 579.44zM881.41 36.94L911.72 54.44L911.72 89.44L881.41 106.94L851.1 89.44L851.1 54.44zM911.72 -15.56L942.03 1.94L942.03 36.94L911.72 54.44L881.41 36.94L881.41 1.94zM942.03 141.94L972.35 159.44L972.35 194.44L942.03 211.94L911.72 194.44L911.72 159.44zM1002.66 36.94L1032.97 54.44L1032.97 89.44L1002.66 106.94L972.35 89.44L972.35 54.44zM1002.66 561.94L1032.97 579.44L1032.97 614.44L1002.66 631.94L972.35 614.44L972.35 579.44zM1063.28 36.94L1093.59 54.44L1093.59 89.44L1063.28 106.94L1032.97 89.44L1032.97 54.44zM1123.9 456.94L1154.22 474.44L1154.22 509.44L1123.9 526.94L1093.59 509.44L1093.59 474.44zM1093.59 509.44L1123.9 526.94L1123.9 561.94L1093.59 579.44L1063.28 561.94L1063.28 526.94zM1184.53 36.94L1214.84 54.44L1214.84 89.44L1184.53 106.94L1154.22 89.44L1154.22 54.44zM1214.84 194.44L1245.15 211.94L1245.15 246.94L1214.84 264.44L1184.53 246.94L1184.53 211.94zM1245.15 246.94L1275.46 264.44L1275.46 299.44L1245.15 316.94L1214.84 299.44L1214.84 264.44zM1214.84 509.44L1245.15 526.94L1245.15 561.94L1214.84 579.44L1184.53 561.94L1184.53 526.94zM1245.15 561.94L1275.46 579.44L1275.46 614.44L1245.15 631.94L1214.84 614.44L1214.84 579.44zM1305.78 141.94L1336.09 159.44L1336.09 194.44L1305.78 211.94L1275.46 194.44L1275.46 159.44zM1275.46 299.44L1305.78 316.94L1305.78 351.94L1275.46 369.44L1245.15 351.94L1245.15 316.94zM1275.46 509.44L1305.78 526.94L1305.78 561.94L1275.46 579.44L1245.15 561.94L1245.15 526.94zM1366.4 246.94L1396.71 264.44L1396.71 299.44L1366.4 316.94L1336.09 299.44L1336.09 264.44zM1427.02 36.94L1457.33 54.44L1457.33 89.44L1427.02 106.94L1396.71 89.44L1396.71 54.44zM1427.02 246.94L1457.33 264.44L1457.33 299.44L1427.02 316.94L1396.71 299.44L1396.71 264.44zM1427.02 456.94L1457.33 474.44L1457.33 509.44L1427.02 526.94L1396.71 509.44L1396.71 474.44z" stroke="url(#SvgjsLinearGradient1313)" stroke-width="2"></path></g><defs><mask id="SvgjsMask1312"><rect width="1440" height="560" fill="#ffffff"></rect></mask><linearGradient x1="220.03199999999998" y1="-220.02399999999997" x2="1219.9679999999998" y2="780.024" gradientUnits="userSpaceOnUse" id="SvgjsLinearGradient1313"><stop stop-color="#0e2a47" offset="0"></stop><stop stop-color="rgba(2, 13, 27, 1)" offset="1"></stop></linearGradient></defs></svg>